<svg width="50" height="50" viewBox="0 0 50 50" fill="none" xmlns="http://www.w3.org/2000/svg">
<path d="M25 3.90625C20.8281 3.90625 16.7498 5.14338 13.2809 7.46119C9.8121 9.779 7.10846 13.0734 5.51193 16.9278C3.91539 20.7822 3.49766 25.0234 4.31157 29.1152C5.12548 33.207 7.13446 36.9655 10.0845 39.9155C13.0345 42.8655 16.793 44.8745 20.8848 45.6884C24.9766 46.5023 29.2179 46.0846 33.0722 44.4881C36.9266 42.8915 40.221 40.1879 42.5388 36.7191C44.8566 33.2502 46.0938 29.1719 46.0938 25C46.0876 19.4075 43.8632 14.0458 39.9087 10.0913C35.9542 6.13682 30.5925 3.91245 25 3.90625ZM27.3438 41.2363V30.4688H31.25C31.8716 30.4688 32.4678 30.2218 32.9073 29.7823C33.3468 29.3427 33.5938 28.7466 33.5938 28.125C33.5938 27.5034 33.3468 26.9073 32.9073 26.4677C32.4678 26.0282 31.8716 25.7812 31.25 25.7812H27.3438V21.875C27.3438 21.2534 27.5907 20.6573 28.0302 20.2177C28.4698 19.7782 29.0659 19.5312 29.6875 19.5312H32.8125C33.4341 19.5312 34.0303 19.2843 34.4698 18.8448C34.9093 18.4052 35.1563 17.8091 35.1563 17.1875C35.1563 16.5659 34.9093 15.9698 34.4698 15.5302C34.0303 15.0907 33.4341 14.8438 32.8125 14.8438H29.6875C27.8227 14.8438 26.0343 15.5845 24.7157 16.9032C23.397 18.2218 22.6563 20.0102 22.6563 21.875V25.7812H18.75C18.1284 25.7812 17.5323 26.0282 17.0927 26.4677C16.6532 26.9073 16.4063 27.5034 16.4063 28.125C16.4063 28.7466 16.6532 29.3427 17.0927 29.7823C17.5323 30.2218 18.1284 30.4688 18.75 30.4688H22.6563V41.2363C18.551 40.6438 14.8225 38.5183 12.2212 35.2875C9.61989 32.0568 8.33885 27.9606 8.63588 23.8235C8.93292 19.6863 10.786 15.8152 13.8221 12.9892C16.8583 10.1632 20.8522 8.5921 25 8.5921C29.1478 8.5921 33.1417 10.1632 36.1779 12.9892C39.214 15.8152 41.0671 19.6863 41.3641 23.8235C41.6612 27.9606 40.3801 32.0568 37.7788 35.2875C35.1775 38.5183 31.449 40.6438 27.3438 41.2363Z" fill="black"/>
</svg>
