<svg width="50" height="50" viewBox="0 0 50 50" fill="none" xmlns="http://www.w3.org/2000/svg">
<path d="M25.0022 18.75C23.3446 18.75 21.7549 19.4085 20.5827 20.5806C19.4106 21.7527 18.7522 23.3424 18.7522 25C18.7522 26.6576 19.4106 28.2473 20.5827 29.4194C21.7549 30.5915 23.3446 31.25 25.0022 31.25C26.6598 31.25 28.2495 30.5915 29.4216 29.4194C30.5937 28.2473 31.2522 26.6576 31.2522 25C31.2522 23.3424 30.5937 21.7527 29.4216 20.5806C28.2495 19.4085 26.6598 18.75 25.0022 18.75ZM25.0022 14.5834C27.7648 14.5834 30.4144 15.6808 32.3679 17.6343C34.3214 19.5878 35.4188 22.2374 35.4188 25C35.4188 27.7627 34.3214 30.4122 32.3679 32.3657C30.4144 34.3192 27.7648 35.4167 25.0022 35.4167C22.2395 35.4167 19.59 34.3192 17.6365 32.3657C15.683 30.4122 14.5855 27.7627 14.5855 25C14.5855 22.2374 15.683 19.5878 17.6365 17.6343C19.59 15.6808 22.2395 14.5834 25.0022 14.5834ZM38.5438 14.0625C38.5438 14.7532 38.2695 15.4156 37.7811 15.9039C37.2927 16.3923 36.6303 16.6667 35.9397 16.6667C35.249 16.6667 34.5866 16.3923 34.0982 15.9039C33.6099 15.4156 33.3355 14.7532 33.3355 14.0625C33.3355 13.3719 33.6099 12.7095 34.0982 12.2211C34.5866 11.7327 35.249 11.4584 35.9397 11.4584C36.6303 11.4584 37.2927 11.7327 37.7811 12.2211C38.2695 12.7095 38.5438 13.3719 38.5438 14.0625ZM25.0022 8.33335C19.848 8.33335 19.0063 8.34794 16.6084 8.45419C14.9751 8.53127 13.8792 8.75002 12.8626 9.14585C12.0122 9.45913 11.2433 9.95968 10.6126 10.6104C9.96107 11.2409 9.45979 12.0099 9.14592 12.8604C8.75008 13.8813 8.53133 14.975 8.45633 16.6063C8.348 18.9063 8.33342 19.7104 8.33342 25C8.33342 30.1563 8.348 30.9959 8.45425 33.3938C8.53133 35.025 8.75008 36.1229 9.14383 37.1375C9.498 38.0438 9.91467 38.6959 10.6063 39.3875C11.3084 40.0875 11.9605 40.5063 12.8563 40.8521C13.8855 41.25 14.9813 41.4709 16.6063 41.5459C18.9063 41.6542 19.7105 41.6667 25.0001 41.6667C30.1563 41.6667 30.9959 41.6521 33.3938 41.5459C35.023 41.4688 36.1188 41.25 37.1376 40.8563C37.9879 40.543 38.7569 40.0425 39.3876 39.3917C40.0897 38.6917 40.5084 38.0396 40.8543 37.1417C41.2501 36.1167 41.4709 35.0209 41.5459 33.3917C41.6543 31.0938 41.6668 30.2875 41.6668 25C41.6668 19.8459 41.6522 19.0042 41.5459 16.6063C41.4688 14.9771 41.248 13.8771 40.8543 12.8604C40.541 12.0101 40.0404 11.2411 39.3897 10.6104C38.7592 9.95892 37.9902 9.45765 37.1397 9.14377C36.1188 8.74794 35.023 8.52919 33.3938 8.45419C31.0959 8.34585 30.2917 8.33335 25.0001 8.33335M25.0001 4.16669C30.6605 4.16669 31.3667 4.18752 33.5897 4.29169C35.8063 4.39585 37.3188 4.74377 38.6459 5.26044C40.0209 5.7896 41.1793 6.50627 42.3376 7.66252C43.3974 8.70363 44.2171 9.9635 44.7397 11.3542C45.2543 12.6813 45.6043 14.1938 45.7084 16.4125C45.8063 18.6334 45.8334 19.3396 45.8334 25C45.8334 30.6604 45.8126 31.3667 45.7084 33.5875C45.6043 35.8084 45.2543 37.3167 44.7397 38.6459C44.2171 40.0365 43.3974 41.2964 42.3376 42.3375C41.2965 43.3973 40.0366 44.2171 38.6459 44.7396C37.3188 45.2542 35.8063 45.6042 33.5897 45.7084C31.3667 45.8063 30.6605 45.8334 25.0001 45.8334C19.3397 45.8334 18.6334 45.8125 16.4105 45.7084C14.1938 45.6042 12.6834 45.2542 11.3542 44.7396C9.96357 44.2171 8.70369 43.3973 7.66258 42.3375C6.6028 41.2964 5.78303 40.0365 5.2605 38.6459C4.74383 37.3188 4.39591 35.8063 4.29175 33.5875C4.19175 31.3667 4.16675 30.6604 4.16675 25C4.16675 19.3396 4.18758 18.6334 4.29175 16.4125C4.39591 14.1917 4.74383 12.6834 5.2605 11.3542C5.78303 9.9635 6.6028 8.70363 7.66258 7.66252C8.70369 6.60274 9.96357 5.78297 11.3542 5.26044C12.6813 4.74377 14.1917 4.39585 16.4105 4.29169C18.6355 4.19377 19.3418 4.16669 25.0022 4.16669" fill="black"/>
</svg>
