<svg width="35" height="35" viewBox="0 0 35 35" fill="none" xmlns="http://www.w3.org/2000/svg">
<path d="M8.20312 5.46875C7.47969 5.47447 6.78751 5.76439 6.27595 6.27595C5.76439 6.78751 5.47447 7.47969 5.46875 8.20312V26.7969C5.46875 28.292 6.70797 29.5312 8.20312 29.5312H26.7969C28.292 29.5312 29.5312 28.292 29.5312 26.7969V8.20312C29.5312 6.70797 28.292 5.46875 26.7969 5.46875H8.20312ZM8.20312 7.65625H26.7969C27.1086 7.65625 27.3438 7.89141 27.3438 8.20312V26.7969C27.3452 26.8691 27.3321 26.9409 27.3052 27.0079C27.2782 27.0749 27.238 27.1358 27.1869 27.1869C27.1358 27.238 27.0749 27.2782 27.0079 27.3052C26.9409 27.3321 26.8691 27.3452 26.7969 27.3438H8.20312C8.1309 27.3452 8.05912 27.3321 7.9921 27.3052C7.92507 27.2782 7.86419 27.238 7.81311 27.1869C7.76203 27.1358 7.7218 27.0749 7.69484 27.0079C7.66789 26.9409 7.65476 26.8691 7.65625 26.7969V8.20312C7.65625 7.89141 7.89141 7.65625 8.20312 7.65625ZM11.4166 9.53641C11.1659 9.53036 10.9166 9.57451 10.6833 9.66625C10.4499 9.75799 10.2373 9.89547 10.0579 10.0706C9.87846 10.2457 9.73589 10.455 9.63855 10.686C9.54121 10.9171 9.49106 11.1653 9.49106 11.416C9.49106 11.6667 9.54121 11.9149 9.63855 12.146C9.73589 12.377 9.87846 12.5863 10.0579 12.7614C10.2373 12.9366 10.4499 13.074 10.6833 13.1658C10.9166 13.2575 11.1659 13.3017 11.4166 13.2956C11.9072 13.2838 12.3738 13.0806 12.7166 12.7294C13.0595 12.3782 13.2514 11.9068 13.2514 11.416C13.2514 10.9252 13.0595 10.4539 12.7166 10.1027C12.3738 9.75147 11.9072 9.54824 11.4166 9.53641ZM21.2931 14.5261C19.7258 14.5261 18.6834 15.3847 18.2525 16.2006H18.1836V14.7656H15.1069V25.1562H18.3203V20.0288C18.3203 18.6747 18.5894 17.3633 20.2683 17.3633C21.922 17.3633 21.9439 18.8923 21.9439 20.0977V25.1562H25.1562V19.448C25.1562 16.6545 24.5613 14.5261 21.2931 14.5261ZM9.84375 14.7656V25.1562H13.0911V14.7656H9.84375Z" fill="white"/>
</svg>
