<svg width="55" height="55" viewBox="0 0 55 55" fill="none" xmlns="http://www.w3.org/2000/svg">
<path d="M12.8906 8.59375C11.7538 8.60274 10.6661 9.05833 9.86221 9.86221C9.05833 10.6661 8.60274 11.7538 8.59375 12.8906V42.1094C8.59375 44.4589 10.5411 46.4062 12.8906 46.4062H42.1094C44.4589 46.4062 46.4062 44.4589 46.4062 42.1094V12.8906C46.4062 10.5411 44.4589 8.59375 42.1094 8.59375H12.8906ZM12.8906 12.0312H42.1094C42.5992 12.0312 42.9688 12.4008 42.9688 12.8906V42.1094C42.9711 42.2229 42.9505 42.3357 42.9081 42.441C42.8657 42.5463 42.8025 42.642 42.7223 42.7223C42.642 42.8025 42.5463 42.8657 42.441 42.9081C42.3357 42.9505 42.2229 42.9711 42.1094 42.9688H12.8906C12.7771 42.9711 12.6643 42.9505 12.559 42.9081C12.4537 42.8657 12.358 42.8025 12.2777 42.7223C12.1975 42.642 12.1343 42.5463 12.0919 42.441C12.0495 42.3357 12.0289 42.2229 12.0312 42.1094V12.8906C12.0312 12.4008 12.4008 12.0312 12.8906 12.0312ZM17.9403 14.9858C17.5464 14.9763 17.1546 15.0457 16.788 15.1898C16.4213 15.334 16.0872 15.55 15.8052 15.8252C15.5233 16.1005 15.2993 16.4293 15.1463 16.7924C14.9933 17.1554 14.9145 17.5455 14.9145 17.9395C14.9145 18.3334 14.9933 18.7235 15.1463 19.0865C15.2993 19.4496 15.5233 19.7785 15.8052 20.0537C16.0872 20.3289 16.4213 20.5449 16.788 20.6891C17.1546 20.8333 17.5464 20.9026 17.9403 20.8931C18.7113 20.8745 19.4445 20.5552 19.9833 20.0033C20.522 19.4514 20.8236 18.7107 20.8236 17.9395C20.8236 17.1682 20.522 16.4275 19.9833 15.8756C19.4445 15.3237 18.7113 15.0044 17.9403 14.9858ZM33.4606 22.8267C30.9977 22.8267 29.3597 24.1759 28.6825 25.4581H28.5742V23.2031H23.7394V39.5312H28.7891V31.4738C28.7891 29.3459 29.2119 27.2852 31.8502 27.2852C34.4489 27.2852 34.4833 29.688 34.4833 31.582V39.5312H39.5312V30.5611C39.5312 26.1714 38.5963 22.8267 33.4606 22.8267ZM15.4688 23.2031V39.5312H20.5717V23.2031H15.4688Z" fill="black"/>
</svg>
