<svg width="50" height="50" viewBox="0 0 50 50" fill="none" xmlns="http://www.w3.org/2000/svg">
<path d="M25.0001 23.7188C23.282 23.7188 21.8105 23.1063 20.5855 21.8813C19.3605 20.6563 18.7487 19.1855 18.7501 17.4688C18.7515 15.7521 19.3633 14.2799 20.5855 13.0521C21.8077 11.8244 23.2792 11.2139 25.0001 11.2209C26.7209 11.2278 28.1924 11.8389 29.4147 13.0542C30.6369 14.2695 31.2487 15.7417 31.2501 17.4709C31.2515 19.2 30.6397 20.6709 29.4147 21.8834C28.1897 23.0959 26.7181 23.7063 25.0001 23.7188ZM10.4167 38.7834V35.3542C10.4167 34.4945 10.6667 33.6903 11.1667 32.9417C11.6681 32.1917 12.3417 31.6098 13.1876 31.1959C15.1542 30.2528 17.1223 29.5459 19.0917 29.0751C21.0598 28.6028 23.0292 28.3667 25.0001 28.3667C26.9709 28.3667 28.9411 28.6028 30.9105 29.0751C32.8799 29.5473 34.8466 30.2542 36.8105 31.1959C37.6577 31.6098 38.3313 32.1917 38.8313 32.9417C39.3327 33.6903 39.5834 34.4945 39.5834 35.3542V38.7834H10.4167ZM12.5001 36.7001H37.5001V35.3542C37.5001 34.8931 37.3508 34.4591 37.0522 34.0521C36.7549 33.6466 36.3431 33.3035 35.8167 33.023C34.1029 32.1924 32.3348 31.5563 30.5126 31.1146C28.6904 30.673 26.8529 30.4514 25.0001 30.4501C23.1473 30.4487 21.3098 30.6695 19.4876 31.1126C17.6654 31.5556 15.8973 32.1917 14.1834 33.0209C13.6556 33.3014 13.2438 33.6445 12.948 34.0501C12.6494 34.457 12.5001 34.8917 12.5001 35.3542V36.7001ZM25.0001 21.6376C26.1459 21.6376 27.1272 21.2292 27.9438 20.4126C28.7605 19.5959 29.1681 18.6139 29.1667 17.4667C29.1654 16.3195 28.7577 15.3389 27.9438 14.5251C27.1299 13.7112 26.1487 13.3028 25.0001 13.3001C23.8515 13.2973 22.8709 13.7056 22.0584 14.5251C21.2459 15.3445 20.8376 16.3251 20.8334 17.4667C20.8292 18.6084 21.2376 19.5896 22.0584 20.4105C22.8792 21.2313 23.8598 21.6389 25.0001 21.6334" fill="black"/>
</svg>
