<svg width="45" height="45" viewBox="0 0 45 45" fill="none" xmlns="http://www.w3.org/2000/svg">
<path d="M36.5625 41.25C37.3084 41.25 38.0238 40.9537 38.5512 40.4262C39.0787 39.8988 39.375 39.1834 39.375 38.4375V31.875C39.375 31.1291 39.0787 30.4137 38.5512 29.8863C38.0238 29.3588 37.3084 29.0625 36.5625 29.0625C34.3687 29.0625 32.2125 28.725 30.15 28.0312C29.6569 27.8756 29.1306 27.858 28.6282 27.9803C28.1257 28.1026 27.6664 28.3601 27.3 28.725L24.6 31.425C19.9354 28.8795 16.1017 25.0458 13.5562 20.3812L16.2375 17.7C17.0062 16.9687 17.2875 15.8812 16.95 14.8312C16.275 12.7875 15.9375 10.6312 15.9375 8.4375C15.9375 7.69158 15.6412 6.97621 15.1137 6.44876C14.5863 5.92132 13.8709 5.625 13.125 5.625H6.5625C5.81658 5.625 5.10121 5.92132 4.57376 6.44876C4.04632 6.97621 3.75 7.69158 3.75 8.4375C3.75 26.5312 18.4688 41.25 36.5625 41.25ZM6.5625 7.5H13.125C13.3736 7.5 13.6121 7.59877 13.7879 7.77459C13.9637 7.9504 14.0625 8.18886 14.0625 8.4375C14.0625 10.8375 14.4375 13.1813 15.1688 15.4125C15.2625 15.675 15.2437 16.05 14.9437 16.35L11.25 20.025C14.3438 26.0813 18.8813 30.6187 24.9563 33.75L28.6125 30.0563C28.875 29.7938 29.2313 29.7188 29.5688 29.8125C31.8188 30.5625 34.1625 30.9375 36.5625 30.9375C36.8111 30.9375 37.0496 31.0363 37.2254 31.2121C37.4012 31.3879 37.5 31.6264 37.5 31.875V38.4375C37.5 38.6861 37.4012 38.9246 37.2254 39.1004C37.0496 39.2762 36.8111 39.375 36.5625 39.375C19.5 39.375 5.625 25.5 5.625 8.4375C5.625 8.18886 5.72377 7.9504 5.89959 7.77459C6.0754 7.59877 6.31386 7.5 6.5625 7.5Z" fill="black"/>
</svg>
