<svg width="30" height="30" viewBox="0 0 30 30" fill="none" xmlns="http://www.w3.org/2000/svg">
<path d="M13.0975 26.4063C14.3542 26.6152 15.6367 26.616 16.8938 26.4088M13.0975 26.4063C10.3981 25.9557 7.94472 24.5622 6.17613 22.4736C4.40755 20.385 3.43713 17.7368 3.4375 15.0001C3.43796 12.7943 4.06935 10.6346 5.25719 8.77597C6.44503 6.91731 8.13973 5.43722 10.1413 4.51032C12.1429 3.58342 14.3679 3.24841 16.5537 3.54481C18.7395 3.84121 20.7949 4.75666 22.4774 6.18313C24.1598 7.6096 25.3992 9.48757 26.0491 11.5954C26.6991 13.7033 26.7326 15.9531 26.1456 18.0794C25.5586 20.2056 24.3757 22.1196 22.7363 23.5955C21.097 25.0714 19.0698 26.0475 16.8938 26.4088M13.0975 26.4063L13.0963 20.1501H10.725C10.5261 20.1501 10.3353 20.071 10.1947 19.9304C10.054 19.7897 9.975 19.599 9.975 19.4001V17.1026C9.975 16.9036 10.054 16.7129 10.1947 16.5722C10.3353 16.4316 10.5261 16.3526 10.725 16.3526H13.0963V12.4376C13.0963 11.443 13.4913 10.4892 14.1946 9.78591C14.8979 9.08265 15.8517 8.68756 16.8463 8.68756H19.1087C19.4403 8.68756 19.7582 8.81926 19.9926 9.05368C20.2271 9.2881 20.3588 9.60604 20.3588 9.93756V11.2376C20.3588 11.5691 20.2271 11.887 19.9926 12.1214C19.7582 12.3559 19.4403 12.4876 19.1087 12.4876H18.1438C17.8122 12.4876 17.4943 12.6193 17.2599 12.8537C17.0254 13.0881 16.8938 13.406 16.8938 13.7376V16.3526H19.765C19.8739 16.3526 19.9814 16.3762 20.0802 16.422C20.179 16.4677 20.2666 16.5344 20.3371 16.6174C20.4075 16.7005 20.459 16.7978 20.488 16.9027C20.517 17.0077 20.5228 17.1177 20.505 17.2251L20.1925 19.1051C20.144 19.3969 19.9935 19.6621 19.7678 19.8535C19.5421 20.0448 19.2559 20.1499 18.96 20.1501H16.8938V26.4088" stroke="white" stroke-width="1.5" stroke-linecap="round"/>
</svg>
