<svg width="37" height="28" viewBox="0 0 37 28" fill="none" xmlns="http://www.w3.org/2000/svg">
<path d="M1 6.57143L16.3417 16.34C16.9807 16.7472 17.7318 16.9646 18.5 16.9646C19.2682 16.9646 20.0193 16.7472 20.6583 16.34L36 6.57143M4.88889 27H32.1111C33.1425 27 34.1317 26.6087 34.861 25.9121C35.5903 25.2155 36 24.2708 36 23.2857V4.71429C36 3.7292 35.5903 2.78445 34.861 2.08789C34.1317 1.39133 33.1425 1 32.1111 1H4.88889C3.85749 1 2.86834 1.39133 2.13903 2.08789C1.40972 2.78445 1 3.7292 1 4.71429V23.2857C1 24.2708 1.40972 25.2155 2.13903 25.9121C2.86834 26.6087 3.85749 27 4.88889 27Z" stroke="black" stroke-width="2" stroke-linecap="round" stroke-linejoin="round"/>
</svg>
