<svg width="45" height="45" viewBox="0 0 45 45" fill="none" xmlns="http://www.w3.org/2000/svg">
<path fill-rule="evenodd" clip-rule="evenodd" d="M7.875 9.75L22.05 20.3812C22.1798 20.4786 22.3377 20.5312 22.5 20.5312C22.6623 20.5312 22.8202 20.4786 22.95 20.3812L37.125 9.75H7.875ZM39 11.1562L24.3 22.1812C23.7807 22.5707 23.1491 22.7812 22.5 22.7812C21.8509 22.7812 21.2193 22.5707 20.7 22.1812L6 11.1562V35.25H39V11.1562ZM5.625 7.5H39.375C39.8723 7.5 40.3492 7.69754 40.7008 8.04918C41.0525 8.40081 41.25 8.87772 41.25 9.375V35.625C41.25 36.1223 41.0525 36.5992 40.7008 36.9508C40.3492 37.3025 39.8723 37.5 39.375 37.5H5.625C5.12772 37.5 4.65081 37.3025 4.29917 36.9508C3.94754 36.5992 3.75 36.1223 3.75 35.625V9.375C3.75 8.87772 3.94754 8.40081 4.29917 8.04918C4.65081 7.69754 5.12772 7.5 5.625 7.5Z" fill="black"/>
</svg>
