<svg width="50" height="50" viewBox="0 0 50 50" fill="none" xmlns="http://www.w3.org/2000/svg">
<path d="M46.7916 12.5C45.1874 13.2291 43.4582 13.7083 41.6666 13.9375C43.4999 12.8333 44.9166 11.0833 45.5833 8.97915C43.8541 10.0208 41.9374 10.75 39.9166 11.1666C38.2707 9.37498 35.9583 8.33331 33.3333 8.33331C28.4374 8.33331 24.4374 12.3333 24.4374 17.2708C24.4374 17.9791 24.5208 18.6666 24.6666 19.3125C17.2499 18.9375 10.6458 15.375 6.24992 9.97915C5.47909 11.2916 5.04159 12.8333 5.04159 14.4583C5.04159 17.5625 6.60409 20.3125 9.02075 21.875C7.54158 21.875 6.16659 21.4583 4.95825 20.8333V20.8958C4.95825 25.2291 8.04159 28.8541 12.1249 29.6666C10.8142 30.0269 9.4375 30.0769 8.10409 29.8125C8.66993 31.5885 9.77812 33.1425 11.2729 34.2561C12.7676 35.3697 14.5738 35.9868 16.4374 36.0208C13.2784 38.5219 9.36244 39.8737 5.33325 39.8541C4.62492 39.8541 3.91659 39.8125 3.20825 39.7291C7.16658 42.2708 11.8749 43.75 16.9166 43.75C33.3333 43.75 42.3541 30.125 42.3541 18.3125C42.3541 17.9166 42.3541 17.5416 42.3332 17.1458C44.0832 15.8958 45.5832 14.3125 46.7916 12.5Z" fill="black"/>
</svg>
