<svg width="50" height="50" viewBox="0 0 50 50" fill="none" xmlns="http://www.w3.org/2000/svg">
<path d="M25.0001 8.33331C26.7813 8.33331 28.6084 8.37915 30.3792 8.45415L32.4709 8.55415L34.473 8.6729L36.348 8.79998L38.0605 8.93331C39.9192 9.07475 41.6684 9.86755 43 11.1721C44.3316 12.4766 45.1601 14.2091 45.3397 16.0646L45.423 16.95L45.5793 18.8458C45.7251 20.8104 45.8334 22.9521 45.8334 25C45.8334 27.0479 45.7251 29.1896 45.5793 31.1541L45.423 33.05L45.3397 33.9354C45.16 35.7911 44.3312 37.524 42.9992 38.8285C41.6672 40.1331 39.9175 40.9257 38.0584 41.0666L36.3501 41.1979L34.4751 41.3271L32.4709 41.4458L30.3792 41.5458C28.5872 41.6234 26.7938 41.6637 25.0001 41.6666C23.2064 41.6637 21.4129 41.6234 19.6209 41.5458L17.5292 41.4458L15.5272 41.3271L13.6522 41.1979L11.9397 41.0666C10.0809 40.9252 8.33175 40.1324 7.00017 38.8279C5.6686 37.5234 4.84006 35.7908 4.6605 33.9354L4.57716 33.05L4.42091 31.1541C4.26223 29.1065 4.17746 27.0538 4.16675 25C4.16675 22.9521 4.27508 20.8104 4.42091 18.8458L4.57716 16.95L4.6605 16.0646C4.83999 14.2095 5.66823 12.4772 6.99938 11.1727C8.33053 9.86823 10.0792 9.07522 11.9376 8.93331L13.648 8.79998L15.523 8.6729L17.5272 8.55415L19.6188 8.45415C21.4115 8.37649 23.2057 8.33621 25.0001 8.33331ZM25.0001 12.5C23.2813 12.5 21.5126 12.5458 19.7917 12.6166L17.7542 12.7146L15.798 12.8291L13.9605 12.9541L12.2772 13.0854C11.3922 13.1474 10.5578 13.5211 9.92229 14.1402C9.28681 14.7592 8.89141 15.5836 8.80633 16.4666C8.56258 18.9854 8.33342 22.1208 8.33342 25C8.33342 27.8791 8.56258 31.0146 8.80633 33.5333C8.98342 35.35 10.4251 36.7625 12.2772 36.9146L13.9605 37.0437L15.798 37.1687L17.7542 37.2854L19.7917 37.3833C21.5126 37.4541 23.2813 37.5 25.0001 37.5C26.7188 37.5 28.4876 37.4541 30.2084 37.3833L32.2459 37.2854L34.2022 37.1708L36.0397 37.0458L37.723 36.9146C38.608 36.8526 39.4424 36.4789 40.0779 35.8598C40.7134 35.2407 41.1088 34.4164 41.1938 33.5333C41.4376 31.0146 41.6668 27.8791 41.6668 25C41.6668 22.1208 41.4376 18.9854 41.1938 16.4666C41.1088 15.5836 40.7134 14.7592 40.0779 14.1402C39.4424 13.5211 38.608 13.1474 37.723 13.0854L36.0397 12.9562L34.2022 12.8312L32.2459 12.7146L30.2084 12.6166C28.4733 12.5422 26.7368 12.5033 25.0001 12.5ZM20.8334 19.9479C20.8333 19.7443 20.8829 19.5437 20.9779 19.3636C21.073 19.1836 21.2106 19.0294 21.3787 18.9146C21.5469 18.7998 21.7406 18.7279 21.9429 18.705C22.1452 18.6821 22.3501 18.709 22.5397 18.7833L22.7084 18.8666L31.4584 23.9166C31.6327 24.0172 31.7801 24.1583 31.8881 24.328C31.9962 24.4977 32.0616 24.6909 32.079 24.8913C32.0964 25.0917 32.0652 25.2934 31.988 25.4791C31.9107 25.6649 31.7898 25.8293 31.6355 25.9583L31.4584 26.0833L22.7084 31.1354C22.5321 31.2375 22.3335 31.295 22.1299 31.3028C21.9263 31.3106 21.7238 31.2685 21.5402 31.1801C21.3566 31.0918 21.1973 30.96 21.0763 30.796C20.9553 30.6321 20.8762 30.4411 20.8459 30.2396L20.8334 30.0521V19.9479Z" fill="black"/>
</svg>
